<svg xmlns="http://www.w3.org/2000/svg" viewBox="0 0 32 32" fill="none">
  <rect width="32" height="32" rx="8" fill="#dc2626"/>
  <path fill-rule="evenodd" clip-rule="evenodd" d="M8 10C8 7.79086 9.79086 6 12 6H20C22.2091 6 24 7.79086 24 10V18C24 20.2091 22.2091 22 20 22H13L9 26V22H8C8 22 8 22 8 22V10ZM12 12C11.4477 12 11 12.4477 11 13C11 13.5523 11.4477 14 12 14H20C20.5523 14 21 13.5523 21 13C21 12.4477 20.5523 12 20 12H12ZM12 16C11.4477 16 11 16.4477 11 17C11 17.5523 11.4477 18 12 18H17C17.5523 18 18 17.5523 18 17C18 16.4477 17.5523 16 17 16H12Z" fill="white"/>
</svg>